<?xml version="1.0" encoding="UTF-8"?>
<svg width="340px" height="249px" viewBox="0 0 340 249" version="1.1" xmlns="http://www.w3.org/2000/svg" xmlns:xlink="http://www.w3.org/1999/xlink">
    <!-- Generator: Sketch 57.1 (83088) - https://sketch.com -->
    <title>card_money_1</title>
    <desc>Created with Sketch.</desc>
    <defs>
        <linearGradient x1="50%" y1="0%" x2="50%" y2="100%" id="linearGradient-1">
            <stop stop-color="#F77062" offset="0%"></stop>
            <stop stop-color="#FE5196" offset="100%"></stop>
        </linearGradient>
        <rect id="path-2" x="0" y="0" width="330" height="239" rx="10"></rect>
        <filter x="-2.6%" y="-2.7%" width="105.2%" height="107.1%" filterUnits="objectBoundingBox" id="filter-3">
            <feMorphology radius="0.5" operator="dilate" in="SourceAlpha" result="shadowSpreadOuter1"></feMorphology>
            <feOffset dx="0" dy="2" in="shadowSpreadOuter1" result="shadowOffsetOuter1"></feOffset>
            <feGaussianBlur stdDeviation="2" in="shadowOffsetOuter1" result="shadowBlurOuter1"></feGaussianBlur>
            <feColorMatrix values="0 0 0 0 0   0 0 0 0 0   0 0 0 0 0  0 0 0 0.15 0" type="matrix" in="shadowBlurOuter1"></feColorMatrix>
        </filter>
    </defs>
    <g id="Page-1" stroke="none" stroke-width="1" fill="none" fill-rule="evenodd">
        <g id="card_money_1" transform="translate(5.000000, 3.000000)">
            <g id="Rectangle">
                <use fill="black" fill-opacity="1" filter="url(#filter-3)" xlink:href="#path-2"></use>
                <use fill="url(#linearGradient-1)" fill-rule="evenodd" xlink:href="#path-2"></use>
            </g>
            <g id="Group-5" transform="translate(274.000000, 33.000000)">
                <rect id="Rectangle" stroke="#FFFFFF" stroke-width="2" x="0" y="0" width="36" height="37" rx="6"></rect>
                <g id="equipo" transform="translate(6.000000, 6.000000)" fill="#FFFFFF" fill-rule="nonzero">
                    <path d="M24.6053703,9.59931641 L22.3185983,9.02709961 C22.1980414,8.68989258 22.0566349,8.35214844 21.8959412,8.01694336 L23.1110315,5.99160156 C23.2341274,5.78662109 23.201559,5.52416992 23.032711,5.35532227 L19.6447649,1.9668457 C19.4759169,1.79746094 19.2124399,1.76591797 19.0084844,1.88852539 L16.9826015,3.10415039 C16.6479329,2.9434082 16.3101881,2.80200195 15.9729804,2.68149414 L15.4007137,0.394677734 C15.3427546,0.162744141 15.1346975,0 14.8956834,0 L10.1044143,0 C9.8653513,0 9.65734308,0.162744141 9.59933515,0.394677734 L9.02711724,2.68144531 C8.68990955,2.80200195 8.35216475,2.9434082 8.01749612,3.10410156 L5.99161326,1.88847656 C5.78663239,1.76640625 5.52418071,1.79741211 5.35533272,1.96679688 L1.96738665,5.35527344 C1.79853867,5.52412109 1.76597025,5.78657227 1.88906619,5.99155273 L3.10415645,8.01689453 C2.94341395,8.35209961 2.80200742,8.68979492 2.68149938,9.02705078 L0.394678505,9.59931641 C0.162744458,9.65727539 0,9.86533203 0,10.1043945 L0,14.8956543 C0,15.1347168 0.162744458,15.3427246 0.394678505,15.4007324 L2.68145055,15.9729492 C2.80200742,16.3101563 2.94341395,16.6479004 3.10410762,16.9831055 L1.88901736,19.0084473 C1.76592142,19.2134277 1.79848984,19.4758789 1.96733783,19.6447266 L5.35528389,23.032666 C5.52315532,23.2010254 5.78609528,23.2330566 5.99156443,23.1109863 L8.01691019,21.8958984 C8.35211592,22.0566406 8.68981189,22.1980469 9.02706841,22.3185547 L9.59928632,24.6053223 C9.65729425,24.8372559 9.86530247,25 10.1043654,25 L14.8956346,25 C15.1346975,25 15.3427057,24.8372559 15.4007137,24.6053223 L15.9729316,22.3185547 C16.3101393,22.197998 16.6478841,22.0565918 16.9830898,21.8958984 L19.0084356,23.1109863 C19.2134164,23.2335449 19.4758681,23.2020508 19.6447161,23.032666 L23.0326622,19.6447266 C23.2015101,19.4758789 23.2340786,19.2134277 23.1109826,19.0084473 L21.8958924,16.9831055 C22.0566349,16.6479004 22.1980414,16.3102051 22.3185494,15.9729492 L24.6053215,15.4007324 C24.8372555,15.3427246 25,15.1347168 25,14.8956543 L25,10.1043945 C25,9.86533203 24.8373044,9.65727539 24.6053703,9.59931641 Z M23.958494,14.4892578 L21.7906187,15.0314453 C21.6161555,15.0746582 21.4762626,15.2054199 21.4213309,15.3763184 C21.2717701,15.8391602 21.0759689,16.3076172 20.839445,16.7689453 C20.757023,16.9286621 20.7636636,17.1199219 20.8562419,17.2745117 L22.0087832,19.1956055 L19.1955453,22.0088379 L17.2749849,20.8562988 C17.120883,20.7647461 16.9306483,20.7576172 16.7694175,20.839502 C16.3076002,21.0760254 15.8391423,21.2718262 15.3762996,21.4213867 C15.2054008,21.4763184 15.0746876,21.6162109 15.0314258,21.7906738 L14.4892373,23.9584473 L10.5107627,23.9584473 L9.96857415,21.7906738 C9.92536118,21.6162109 9.7945992,21.4763184 9.62370043,21.4213867 C9.16085773,21.2718262 8.69239979,21.0760254 8.23058248,20.839502 C8.06983998,20.7565918 7.87862867,20.7637207 7.72501508,20.8562988 L5.80445469,22.0088379 L2.99121678,19.1955566 L4.14375809,17.2744629 C4.2363364,17.1198242 4.24292821,16.9286133 4.160555,16.7688965 C3.9240311,16.3075684 3.72822994,15.8391113 3.5786691,15.3762695 C3.52373735,15.2053711 3.3838445,15.0746582 3.20938127,15.0313965 L1.04165242,14.4892578 L1.04165242,10.5107422 L3.2094301,9.96855469 C3.38389333,9.9253418 3.52378618,9.79458008 3.57871793,9.62368164 C3.72827876,9.16083984 3.92407993,8.69238281 4.16060383,8.23105469 C4.24302586,8.07133789 4.23638523,7.88007813 4.14380692,7.72548828 L2.99121678,5.80444336 L5.80445469,2.99072266 L7.72555219,4.14379883 C7.88019117,4.23686523 8.07140248,4.24399414 8.23111959,4.1605957 C8.69244861,3.92407227 9.16090656,3.72827148 9.62374926,3.57871094 C9.79464803,3.5237793 9.92536118,3.38388672 9.96862298,3.20942383 L10.5108115,1.04165039 L14.4892861,1.04165039 L15.0314747,3.20942383 C15.0746876,3.38388672 15.2054496,3.5237793 15.3763484,3.57871094 C15.8391911,3.72827148 16.307649,3.92407227 16.7689781,4.1605957 C16.9281581,4.24301758 17.1199553,4.23588867 17.2745455,4.14379883 L19.195643,2.99072266 L22.0088809,5.80444336 L20.8563396,7.72553711 C20.7637612,7.88017578 20.7571694,8.07138672 20.8395426,8.23110352 C21.0760665,8.69243164 21.2718677,9.16088867 21.4214285,9.62373047 C21.4763603,9.79462891 21.6162531,9.9253418 21.7907164,9.96860352 L23.958494,10.510791 L23.958494,14.4892578 L23.958494,14.4892578 Z" id="Shape"></path>
                    <path d="M12.5,6 C8.91570703,6 6,8.91570703 6,12.5 C6,16.084293 8.91570703,19 12.5,19 C16.084293,19 19,16.084293 19,12.5 C19,8.91570703 16.084293,6 12.5,6 Z M12.5,17.9166836 C9.51340234,17.9166836 7.08331641,15.4865977 7.08331641,12.5 C7.08331641,9.51340234 9.51345313,7.08331641 12.5,7.08331641 C15.4865469,7.08331641 17.9166836,9.51345313 17.9166836,12.5 C17.9166836,15.4865469 15.4865977,17.9166836 12.5,17.9166836 Z" id="Shape"></path>
                </g>
            </g>
            <text id="$-145.000" font-family="Helvetica" font-size="25" font-weight="normal" fill="#FFFFFF">
                <tspan x="20" y="67">$ 145.000</tspan>
            </text>
            <text id="Balance-actual" font-family="Helvetica" font-size="14" font-weight="normal" fill="#FFFFFF">
                <tspan x="20" y="38">Balance actual</tspan>
            </text>
            <text id="Limite-por-operación" font-family="Helvetica" font-size="15" font-weight="normal" fill="#FFFFFF">
                <tspan x="20" y="149">Limite por operación</tspan>
            </text>
            <g id="Group-11" transform="translate(20.000000, 87.000000)">
                <text id="*-*-*-*-*-*-*-*-*-28" font-family="Helvetica" font-size="15" font-weight="normal" fill="#FFFFFF">
                    <tspan x="46" y="21">* * * *     * * * * *     2897</tspan>
                </text>
                <rect id="Rectangle" fill-opacity="0.2" fill="#000000" x="0" y="0" width="32" height="31" rx="6"></rect>
                <g id="cc-mastercard" transform="translate(6.000000, 9.000000)" fill="#FFFFFF" fill-rule="nonzero">
                    <path d="M0,6.49530347 C0,10.0881503 2.9109375,13 6.4921875,13 C7.7671875,13 9.01875,12.6148844 10.078125,11.9151012 C6.6609375,9.1300578 6.684375,3.87463873 10.078125,1.08959538 C9.01875,0.385115607 7.7671875,0.0046908676 6.4921875,0.0046908676 C2.9109375,-8.01008565e-15 0,2.91654624 0,6.49530347 Z M10.5,11.6051301 C13.8046875,9.02203757 13.790625,3.98735549 10.5,1.39017341 C7.209375,3.98735549 7.1953125,9.0267341 10.5,11.6051301 Z M21,6.49530347 C21,2.91654624 18.0890625,0 14.5078125,0 C13.2328125,0 11.98125,0.385115607 10.921875,1.08489884 C14.3015625,3.8699422 14.353125,9.13945087 10.921875,11.9104046 C11.98125,12.6148844 13.2421875,12.9953091 14.5078125,12.9953091 C18.0890625,13 21,10.0881503 21,6.49530347 Z" id="Shape"></path>
                </g>
            </g>
            <text id="Limite-por-mes" font-family="Helvetica" font-size="15" font-weight="normal" fill="#FFFFFF">
                <tspan x="20" y="180">Limite por mes</tspan>
            </text>
            <text id="Controles-activado" font-family="Helvetica" font-size="15" font-weight="normal" fill="#FFFFFF">
                <tspan x="20" y="211">Controles activado</tspan>
            </text>
            <text id="$5.000" font-family="Helvetica" font-size="15" font-weight="normal" fill="#FFFFFF">
                <tspan x="263.121094" y="149">$5.000</tspan>
            </text>
            <text id="$15.000" font-family="Helvetica" font-size="15" font-weight="normal" fill="#FFFFFF">
                <tspan x="254.778809" y="180">$15.000</tspan>
            </text>
            <text id="Supermerca…" font-family="Helvetica" font-size="15" font-weight="normal" fill="#FFFFFF">
                <tspan x="227.29834" y="211">Supermerca</tspan>
                <tspan x="294" y="229">…</tspan>
            </text>
        </g>
    </g>
</svg>