<?xml version="1.0" encoding="UTF-8"?>
<svg width="375px" height="704px" viewBox="0 0 375 704" version="1.1" xmlns="http://www.w3.org/2000/svg" xmlns:xlink="http://www.w3.org/1999/xlink">
    <!-- Generator: Sketch 57.1 (83088) - https://sketch.com -->
    <title>Group 15</title>
    <desc>Created with Sketch.</desc>
    <g id="Page-1" stroke="none" stroke-width="1" fill="none" fill-rule="evenodd">
        <g id="Group-15">
            <rect id="Rectangle" fill="#FFFFFF" x="0" y="2" width="375" height="702" rx="16"></rect>
            <text id="$-5.000" font-family="Helvetica" font-size="25" font-weight="normal" line-spacing="28" fill="#2D132C">
                <tspan x="20" y="105">$ 5.000</tspan>
            </text>
            <text id="23%" font-family="Helvetica" font-size="15" font-weight="normal" line-spacing="28" fill="#EE4540">
                <tspan x="108" y="98">23%</tspan>
            </text>
            <text id="$10.000-gastados-del" font-family="Helvetica" font-size="13" font-weight="normal" line-spacing="28" fill="#801336">
                <tspan x="20" y="135">$10.000 gastados del limite del mes</tspan>
            </text>
            <path d="M20,119 L222,119" id="Path-5" stroke="#D6D6D6" stroke-width="5" stroke-linecap="round" stroke-linejoin="round"></path>
            <path d="M20,119 L172,119" id="Path-5" stroke="#07D408" stroke-width="5" stroke-linecap="round" stroke-linejoin="round"></path>
            <text id="Disponible-antes-de" font-family="Helvetica" font-size="16" font-weight="normal" line-spacing="28" fill="#858585">
                <tspan x="20" y="68">Disponible antes de llegar al limite</tspan>
            </text>
            <g id="Group-4" transform="translate(305.000000, 68.000000)" fill="#FFFFFF" stroke="#F77062" stroke-width="2">
                <g id="Group-5">
                    <rect id="Rectangle" x="0" y="0" width="36" height="37" rx="6"></rect>
                </g>
            </g>
            <g id="Group" transform="translate(312.000000, 74.000000)" fill="#F77062" fill-rule="nonzero">
                <g id="Shape">
                    <path d="M14.5715295,20.6315789 C14.3621368,22.4097558 12.8429683,23.7894737 11,23.7894737 C9.15703174,23.7894737 7.63786316,22.4097558 7.42847054,20.6315789 L2.54264712,20.6315789 C1.25518876,20.6315789 0.211538462,19.5952638 0.211538462,18.3157895 C0.211538462,17.0380892 1.25435323,16 2.53934446,16 C2.65455634,16 2.75,15.9049546 2.75,15.7887397 L2.75,10.7365261 C2.75,7.13509326 5.09780751,4.00167579 8.46153846,2.92219309 L8.46153846,2.52667524 C8.46153846,1.13188307 9.59953026,0 11,0 C12.4027087,0 13.5384615,1.12951747 13.5384615,2.52667524 L13.5384615,2.92224522 C16.9021069,4.00187213 19.25,7.13585794 19.25,10.7365261 L19.25,15.7887397 C19.25,15.9072623 19.3432288,16 19.4606555,16 C20.7436605,16 21.7884615,17.0377548 21.7884615,18.3157895 C21.7884615,19.5937654 20.7438902,20.6315789 19.4573529,20.6315789 L14.5715295,20.6315789 Z M13.288555,20.6315789 L8.71144497,20.6315789 C8.91039955,21.7095234 9.85935517,22.5263158 11,22.5263158 C12.1406448,22.5263158 13.0896004,21.7095234 13.288555,20.6315789 Z M9.25426725,4.00820648 C6.19545765,4.79135381 4.01923077,7.54720989 4.01923077,10.7365261 L4.01923077,15.7887397 C4.01923077,16.6024037 3.35570785,17.2631579 2.53934446,17.2631579 C1.95540231,17.2631579 1.48076923,17.7356402 1.48076923,18.3157895 C1.48076923,18.8970019 1.95552508,19.3684211 2.54264712,19.3684211 L19.4573529,19.3684211 C20.0433944,19.3684211 20.5192308,18.8956631 20.5192308,18.3157895 C20.5192308,17.7359355 20.043243,17.2631579 19.4606555,17.2631579 C18.64239,17.2631579 17.9807692,16.6050225 17.9807692,15.7887397 L17.9807692,10.7365261 C17.9807692,7.54796295 15.8043989,4.79146467 12.7457108,4.00823238 L12.2692308,3.88622109 L12.2692308,2.52667524 C12.2692308,1.82734088 11.7019333,1.26315789 11,1.26315789 C10.3003405,1.26315789 9.73076923,1.82967175 9.73076923,2.52667524 L9.73076923,3.88620762 L9.25426725,4.00820648 Z"></path>
                </g>
            </g>
            <rect id="Rectangle" fill-opacity="0.13" fill="#DA000A" x="20" y="171" width="45" height="43" rx="6"></rect>
            <g id="cupon" transform="translate(42.500000, 192.500000) rotate(-38.000000) translate(-42.500000, -192.500000) translate(29.000000, 185.000000)" fill="#F77062" fill-rule="nonzero">
                <rect id="Rectangle" x="8.35714286" y="8.75" width="1" height="1"></rect>
                <rect id="Rectangle" x="8.35714286" y="10.625" width="1" height="1"></rect>
                <rect id="Rectangle" x="8.35714286" y="12.5" width="1" height="1"></rect>
                <rect id="Rectangle" x="8.35714286" y="7.5" width="1" height="1"></rect>
                <rect id="Rectangle" x="8.35714286" y="5.625" width="1" height="1"></rect>
                <rect id="Rectangle" x="8.35714286" y="3.75" width="1" height="1"></rect>
                <rect id="Rectangle" x="8.35714286" y="1.875" width="1" height="1"></rect>
                <rect id="Rectangle" x="1.92857143" y="1.875" width="1" height="1"></rect>
                <rect id="Rectangle" x="24.4285714" y="1.875" width="1" height="1"></rect>
                <rect id="Rectangle" x="24.4285714" y="12.5" width="1" height="1"></rect>
                <rect id="Rectangle" x="1.92857143" y="12.5" width="1" height="1"></rect>
                <path d="M26.55,5.29411765 C26.7985125,5.29411765 27,5.09658088 27,4.85294118 L27,0.441176471 C27,0.197536765 26.7985125,0 26.55,0 L0.45,0 C0.2014875,0 0,0.197536765 0,0.441176471 L0,4.85294118 C0,5.09658088 0.2014875,5.29411765 0.45,5.29411765 C1.69261875,5.29411765 2.7,6.28174632 2.7,7.5 C2.7,8.71825368 1.69261875,9.70588235 0.45,9.70588235 C0.2014875,9.70588235 0,9.90341912 0,10.1470588 L0,14.5588235 C0,14.8024632 0.2014875,15 0.45,15 L26.55,15 C26.7985125,15 27,14.8024632 27,14.5588235 L27,10.1470588 C27,9.90341912 26.7985125,9.70588235 26.55,9.70588235 C25.3073813,9.70588235 24.3,8.71825368 24.3,7.5 C24.3,6.28174632 25.3073813,5.29411765 26.55,5.29411765 Z M23.429475,7.93875 C23.62815,9.29591912 24.7157437,10.3621324 26.1,10.5569118 L26.1,14.1176471 L0.9,14.1176471 L0.9,10.5569118 C2.6220375,10.3145956 3.8176875,8.74957721 3.570525,7.06125 C3.37185,5.70413603 2.2843125,4.63786765 0.9,4.44308824 L0.9,0.882352941 L26.1,0.882352941 L26.1,4.44308824 C24.3779625,4.68540441 23.1823125,6.25042279 23.429475,7.93875 Z" id="Shape"></path>
                <path d="M13.5,3.125 C12.4348862,3.125 11.5714286,3.96447266 11.5714286,5 C11.5714286,6.03552734 12.4348862,6.875 13.5,6.875 C14.5651138,6.875 15.4285714,6.03552734 15.4285714,5 C15.4285714,3.96447266 14.5651138,3.125 13.5,3.125 Z M13.5,5.9375 C12.9674129,5.9375 12.5357143,5.51779297 12.5357143,5 C12.5357143,4.48220703 12.9674129,4.0625 13.5,4.0625 C14.0325871,4.0625 14.4642857,4.48220703 14.4642857,5 C14.4642857,5.51779297 14.0325871,5.9375 13.5,5.9375 Z" id="Shape"></path>
                <path d="M18.6428571,8.125 C17.5777433,8.125 16.7142857,8.96447266 16.7142857,10 C16.7142857,11.0355273 17.5777433,11.875 18.6428571,11.875 C19.707971,11.875 20.5714286,11.0355273 20.5714286,10 C20.5714286,8.96447266 19.707971,8.125 18.6428571,8.125 Z M18.6428571,10.9375 C18.1102701,10.9375 17.6785714,10.517793 17.6785714,10 C17.6785714,9.48220703 18.1102701,9.0625 18.6428571,9.0625 C19.1754442,9.0625 19.6071429,9.48220703 19.6071429,10 C19.6071429,10.517793 19.1754442,10.9375 18.6428571,10.9375 Z" id="Shape"></path>
                <polygon id="Rectangle" transform="translate(16.199963, 7.499030) rotate(-45.000000) translate(-16.199963, -7.499030) " points="11.1544091 7.0035334 21.2366932 7.10335799 21.2455166 7.99452592 11.1632326 7.89470132"></polygon>
            </g>
            <rect id="Rectangle-Copy-2" fill-opacity="0.13" fill="#DA000A" x="20" y="270" width="45" height="43" rx="6"></rect>
            <g id="advertencia" transform="translate(30.000000, 281.000000)" fill="#F77062" fill-rule="nonzero">
                <path d="M14,5 L13,5 C12.4477153,5 12,5.44771525 12,6 L12,13 C12,13.5522847 12.4477153,14 13,14 L14,14 C14.5522847,14 15,13.5522847 15,13 L15,6 C15,5.44771525 14.5522847,5 14,5 Z M13,13 L13,6 L14,6 L14,13 L13,13 Z" id="Shape"></path>
                <path d="M14,15 L13,15 C12.4477153,15 12,15.4477153 12,16 L12,17 C12,17.5522847 12.4477153,18 13,18 L14,18 C14.5522847,18 15,17.5522847 15,17 L15,16 C15,15.4477153 14.5522847,15 14,15 Z M13,17 L13,16 L14,16 L14,17 L13,17 Z" id="Shape"></path>
                <path d="M15.1185891,1.14613168 C14.6463037,0.430082819 13.8513089,0 13,0 C12.1486911,0 11.3536963,0.430082819 10.8814109,1.14613168 L0.427497849,16.9980261 C-0.0933139132,17.7880087 -0.141767118,18.8036605 0.301427687,19.6406458 C0.744622491,20.477631 1.60751984,21 2.54659622,21 L10.4536189,21 L15.5463811,21 L23.4534038,21 C24.3924802,21 25.2553775,20.477631 25.6985723,19.6406458 C26.1417671,18.8036605 26.0933139,17.7880087 25.5725022,16.9980261 L15.1185891,1.14613168 Z M11.4721713,21.0178215 L14.5278287,21.0178215 L11.4721713,21.0178215 Z M23.4534038,19.9704056 L2.54659622,19.9704056 C1.98280561,19.9710073 1.46444311,19.6577753 1.19809065,19.1554241 C0.931738182,18.6530729 0.960689102,18.0432555 1.27340566,17.5690011 L11.7268094,1.71710674 C12.0101807,1.28747742 12.4871776,1.02942773 12.9979629,1.02942773 C13.5087482,1.02942773 13.9857451,1.28747742 14.2691164,1.71710674 L24.7245572,17.5690011 C25.041934,18.0413986 25.071229,18.6535942 24.8004394,19.1547569 C24.5382219,19.6604546 24.018161,19.9753135 23.4534038,19.9704056 Z" id="Shape"></path>
            </g>
            <g id="advertencia-copy" transform="translate(30.000000, 404.000000)" fill="#F77062" fill-rule="nonzero">
                <path d="M14,5 L13,5 C12.4477153,5 12,5.44771525 12,6 L12,13 C12,13.5522847 12.4477153,14 13,14 L14,14 C14.5522847,14 15,13.5522847 15,13 L15,6 C15,5.44771525 14.5522847,5 14,5 Z M13,13 L13,6 L14,6 L14,13 L13,13 Z" id="Shape"></path>
                <path d="M14,15 L13,15 C12.4477153,15 12,15.4477153 12,16 L12,17 C12,17.5522847 12.4477153,18 13,18 L14,18 C14.5522847,18 15,17.5522847 15,17 L15,16 C15,15.4477153 14.5522847,15 14,15 Z M13,17 L13,16 L14,16 L14,17 L13,17 Z" id="Shape"></path>
                <path d="M15.1185891,1.14613168 C14.6463037,0.430082819 13.8513089,0 13,0 C12.1486911,0 11.3536963,0.430082819 10.8814109,1.14613168 L0.427497849,16.9980261 C-0.0933139132,17.7880087 -0.141767118,18.8036605 0.301427687,19.6406458 C0.744622491,20.477631 1.60751984,21 2.54659622,21 L10.4536189,21 L15.5463811,21 L23.4534038,21 C24.3924802,21 25.2553775,20.477631 25.6985723,19.6406458 C26.1417671,18.8036605 26.0933139,17.7880087 25.5725022,16.9980261 L15.1185891,1.14613168 Z M11.4721713,21.0178215 L14.5278287,21.0178215 L11.4721713,21.0178215 Z M23.4534038,19.9704056 L2.54659622,19.9704056 C1.98280561,19.9710073 1.46444311,19.6577753 1.19809065,19.1554241 C0.931738182,18.6530729 0.960689102,18.0432555 1.27340566,17.5690011 L11.7268094,1.71710674 C12.0101807,1.28747742 12.4871776,1.02942773 12.9979629,1.02942773 C13.5087482,1.02942773 13.9857451,1.28747742 14.2691164,1.71710674 L24.7245572,17.5690011 C25.041934,18.0413986 25.071229,18.6535942 24.8004394,19.1547569 C24.5382219,19.6604546 24.018161,19.9753135 23.4534038,19.9704056 Z" id="Shape"></path>
            </g>
            <rect id="Rectangle-Copy-3" fill-opacity="0.13" fill="#DA000A" x="20" y="393" width="45" height="43" rx="6"></rect>
            <g id="Group-12" transform="translate(20.000000, 496.000000)">
                <rect id="Rectangle-Copy-4" fill-opacity="0.13" fill="#DA000A" x="0" y="20" width="45" height="43" rx="6"></rect>
                <g id="comprobado" transform="translate(9.000000, 28.000000)" fill="#F77062" fill-rule="nonzero">
                    <path d="M23.8994766,4.10046875 C21.2552266,1.45621875 17.7395859,0 14,0 C10.2604141,0 6.74477344,1.45621875 4.10057813,4.10046875 C1.45621875,6.74477344 0,10.2604688 0,14 C0,17.7395312 1.45621875,21.2552266 4.10057813,23.8995312 C6.74477344,26.5437813 10.2604141,28 14,28 C17.7395859,28 21.2552266,26.5437813 23.8994766,23.8995312 C26.5437813,21.2552266 28,17.7395312 28,14 C28,10.2604688 26.5437813,6.74477344 23.8994766,4.10046875 Z M14,26.8844844 C6.89549219,26.8844844 1.11551563,21.1045625 1.11551563,14 C1.11551563,6.8954375 6.89549219,1.11551563 14,1.11551563 C21.1045078,1.11551563 26.8844844,6.89549219 26.8844844,14 C26.8844844,21.1045078 21.1045078,26.8844844 14,26.8844844 Z" id="Shape"></path>
                    <path d="M22.4151433,7.59212693 C21.6352784,6.80262436 20.3663029,6.80262436 19.586438,7.59212693 L11.1711476,16.1113578 L8.41360399,13.3198496 C7.63373908,12.530347 6.3647636,12.530347 5.58489869,13.3198496 C4.80503377,14.1093522 4.80503377,15.3940098 5.58489869,16.1835691 L9.75682297,20.4069938 C10.1346523,20.7894357 10.6369306,21 11.1711476,21 C11.7053646,21 12.2076429,20.789379 12.5855283,20.4069371 L22.4151433,10.4558465 C23.1949522,9.66628715 23.1949522,8.38157279 22.4151433,7.59212693 Z M21.6069258,9.63758415 L11.7773668,19.5886748 C11.6154319,19.7525542 11.4001538,19.8429175 11.1712036,19.8429175 C10.9422535,19.8429175 10.7269754,19.7526109 10.5650965,19.5886748 L6.39322828,15.3652501 C6.05893642,15.026827 6.05893642,14.4763081 6.39317224,14.1379417 C6.56026214,13.9687869 6.77979876,13.8842095 6.99933539,13.8842095 C7.21881598,13.8842095 7.43840864,13.9688436 7.6054425,14.1379984 L10.7670388,17.3386662 C10.9903297,17.564603 11.3520776,17.564603 11.5753124,17.3386662 L20.3945995,8.41027579 C20.7288914,8.07190943 21.272746,8.07190943 21.6069818,8.41027579 C21.9411616,8.74864214 21.9411616,9.29916107 21.6069258,9.63758415 Z" id="Shape"></path>
                </g>
                <text id="Haz-configurado-el-l" font-family="Helvetica" font-size="17" font-weight="normal" fill="#4F4F4F">
                    <tspan x="61" y="37">Haz configurado el límite por </tspan>
                    <tspan x="61" y="57">mes a la tarjeta * * * * 6578</tspan>
                </text>
                <text id="El-nuevo-límite-de-l" font-family="Helvetica" font-size="14" font-weight="normal" fill="#909090">
                    <tspan x="61" y="83">El nuevo límite de la tarjeta es de </tspan>
                    <tspan x="61" y="100">$25.000</tspan>
                </text>
                <text id="5d" font-family="Helvetica" font-size="14" font-weight="normal" fill="#4F4F4F">
                    <tspan x="310.427734" y="14">5d</tspan>
                </text>
            </g>
            <g id="Group-12-Copy" transform="translate(20.000000, 603.000000)">
                <rect id="Rectangle-Copy-4" fill-opacity="0.13" fill="#DA000A" x="0" y="20" width="45" height="43" rx="6"></rect>
                <g id="cupon" transform="translate(22.500000, 40.500000) rotate(-38.000000) translate(-22.500000, -40.500000) translate(9.000000, 33.000000)" fill="#F77062" fill-rule="nonzero">
                    <rect id="Rectangle" x="8.35714286" y="8.75" width="1" height="1"></rect>
                    <rect id="Rectangle" x="8.35714286" y="10.625" width="1" height="1"></rect>
                    <rect id="Rectangle" x="8.35714286" y="12.5" width="1" height="1"></rect>
                    <rect id="Rectangle" x="8.35714286" y="7.5" width="1" height="1"></rect>
                    <rect id="Rectangle" x="8.35714286" y="5.625" width="1" height="1"></rect>
                    <rect id="Rectangle" x="8.35714286" y="3.75" width="1" height="1"></rect>
                    <rect id="Rectangle" x="8.35714286" y="1.875" width="1" height="1"></rect>
                    <rect id="Rectangle" x="1.92857143" y="1.875" width="1" height="1"></rect>
                    <rect id="Rectangle" x="24.4285714" y="1.875" width="1" height="1"></rect>
                    <rect id="Rectangle" x="24.4285714" y="12.5" width="1" height="1"></rect>
                    <rect id="Rectangle" x="1.92857143" y="12.5" width="1" height="1"></rect>
                    <path d="M26.55,5.29411765 C26.7985125,5.29411765 27,5.09658088 27,4.85294118 L27,0.441176471 C27,0.197536765 26.7985125,0 26.55,0 L0.45,0 C0.2014875,0 0,0.197536765 0,0.441176471 L0,4.85294118 C0,5.09658088 0.2014875,5.29411765 0.45,5.29411765 C1.69261875,5.29411765 2.7,6.28174632 2.7,7.5 C2.7,8.71825368 1.69261875,9.70588235 0.45,9.70588235 C0.2014875,9.70588235 0,9.90341912 0,10.1470588 L0,14.5588235 C0,14.8024632 0.2014875,15 0.45,15 L26.55,15 C26.7985125,15 27,14.8024632 27,14.5588235 L27,10.1470588 C27,9.90341912 26.7985125,9.70588235 26.55,9.70588235 C25.3073813,9.70588235 24.3,8.71825368 24.3,7.5 C24.3,6.28174632 25.3073813,5.29411765 26.55,5.29411765 Z M23.429475,7.93875 C23.62815,9.29591912 24.7157437,10.3621324 26.1,10.5569118 L26.1,14.1176471 L0.9,14.1176471 L0.9,10.5569118 C2.6220375,10.3145956 3.8176875,8.74957721 3.570525,7.06125 C3.37185,5.70413603 2.2843125,4.63786765 0.9,4.44308824 L0.9,0.882352941 L26.1,0.882352941 L26.1,4.44308824 C24.3779625,4.68540441 23.1823125,6.25042279 23.429475,7.93875 Z" id="Shape"></path>
                    <path d="M13.5,3.125 C12.4348862,3.125 11.5714286,3.96447266 11.5714286,5 C11.5714286,6.03552734 12.4348862,6.875 13.5,6.875 C14.5651138,6.875 15.4285714,6.03552734 15.4285714,5 C15.4285714,3.96447266 14.5651138,3.125 13.5,3.125 Z M13.5,5.9375 C12.9674129,5.9375 12.5357143,5.51779297 12.5357143,5 C12.5357143,4.48220703 12.9674129,4.0625 13.5,4.0625 C14.0325871,4.0625 14.4642857,4.48220703 14.4642857,5 C14.4642857,5.51779297 14.0325871,5.9375 13.5,5.9375 Z" id="Shape"></path>
                    <path d="M18.6428571,8.125 C17.5777433,8.125 16.7142857,8.96447266 16.7142857,10 C16.7142857,11.0355273 17.5777433,11.875 18.6428571,11.875 C19.707971,11.875 20.5714286,11.0355273 20.5714286,10 C20.5714286,8.96447266 19.707971,8.125 18.6428571,8.125 Z M18.6428571,10.9375 C18.1102701,10.9375 17.6785714,10.517793 17.6785714,10 C17.6785714,9.48220703 18.1102701,9.0625 18.6428571,9.0625 C19.1754442,9.0625 19.6071429,9.48220703 19.6071429,10 C19.6071429,10.517793 19.1754442,10.9375 18.6428571,10.9375 Z" id="Shape"></path>
                    <polygon id="Rectangle" transform="translate(16.199963, 7.499030) rotate(-45.000000) translate(-16.199963, -7.499030) " points="11.1544091 7.0035334 21.2366932 7.10335799 21.2455166 7.99452592 11.1632326 7.89470132"></polygon>
                </g>
                <text id="No-te-pierdas-los-me" font-family="Helvetica" font-size="17" font-weight="normal" fill="#4F4F4F">
                    <tspan x="61" y="37">No te pierdas los mejores </tspan>
                    <tspan x="61" y="57">descuentos del Black Friday</tspan>
                </text>
                <text id="El-nuevo-límite-de-l" font-family="Helvetica" font-size="14" font-weight="normal" fill="#909090">
                    <tspan x="61" y="83">El nuevo límite de la tarjeta es de </tspan>
                    <tspan x="61" y="100">$25.000</tspan>
                </text>
                <text id="5d" font-family="Helvetica" font-size="14" font-weight="normal" fill="#4F4F4F">
                    <tspan x="310.427734" y="14">5d</tspan>
                </text>
            </g>
            <text id="Disfruta-el-día-de-l" font-family="Helvetica" font-size="17" font-weight="normal" fill="#4F4F4F">
                <tspan x="81" y="188">Disfruta el día de la madre</tspan>
            </text>
            <text id="Te-quedan-$7000-para" font-family="Helvetica" font-size="17" font-weight="normal" fill="#4F4F4F">
                <tspan x="81" y="287">Te quedan $7000 para llegar </tspan>
                <tspan x="81" y="307">al límite * * * * 2897</tspan>
            </text>
            <text id="La-tarjeta-*-*-*-*-2" font-family="Helvetica" font-size="17" font-weight="normal" fill="#4F4F4F">
                <tspan x="81" y="410">La tarjeta * * * * 2897 llegó al </tspan>
                <tspan x="81" y="430">límite.</tspan>
            </text>
            <text id="Desbloquea-el-contro" font-family="Helvetica" font-size="14" font-weight="normal" fill="#909090">
                <tspan x="81" y="210">Desbloquea el control de entretenimiento </tspan>
                <tspan x="81" y="227">y disfruta el día de la madre.</tspan>
            </text>
            <text id="Desbloquea-el-contro-Copy" font-family="Helvetica" font-size="14" font-weight="normal" fill="#909090">
                <tspan x="81" y="333">Desbloquea el control de entretenimiento </tspan>
                <tspan x="81" y="350">y disfruta el día de la madre.</tspan>
            </text>
            <text id="Para-seguir-comprand" font-family="Helvetica" font-size="14" font-weight="normal" fill="#909090">
                <tspan x="81" y="456">Para seguir comprando actualiza el límite </tspan>
                <tspan x="81" y="473">por mes.</tspan>
            </text>
            <text id="1d" font-family="Helvetica" font-size="14" font-weight="normal" fill="#4F4F4F">
                <tspan x="330.427734" y="165">1d</tspan>
            </text>
            <text id="2d" font-family="Helvetica" font-size="14" font-weight="normal" fill="#4F4F4F">
                <tspan x="330.427734" y="264">2d</tspan>
            </text>
            <text id="4d" font-family="Helvetica" font-size="14" font-weight="normal" fill="#4F4F4F">
                <tspan x="330.427734" y="387">4d</tspan>
            </text>
            <g id="Group-10" transform="translate(82.000000, 0.000000)">
                <text id="Alertas" font-family="SFProText-Regular, SF Pro Text" font-size="14" font-weight="normal" fill="#DA000A">
                    <tspan x="30" y="28">Alertas</tspan>
                </text>
                <text id="Gastos" font-family="SFProText-Regular, SF Pro Text" font-size="14" font-weight="normal" fill="#AAAAAA">
                    <tspan x="152" y="28">Gastos</tspan>
                </text>
                <rect id="Rectangle" fill="#DA000A" x="0" y="0" width="105" height="4" rx="2"></rect>
            </g>
        </g>
    </g>
</svg>